{
  "accessors": [
    {
      "bufferView": 2,
      "componentType": 5126,
      "count": 65532,
      "max": [
        5.9471321105957031,
        0.41765299439430237,
        18.218521118164062
      ],
      "min": [
        -11.777209281921387,
        -9.618372917175293,
        -10.602199554443359
      ],
      "type": "VEC3"
    },
    {
      "bufferView": 2,
      "byteOffset": 786384,
      "componentType": 5126,
      "count": 65532,
      "max": [
        0.9999883770942688,
        0.99834775924682617,
        0.99986523389816284
      ],
      "min": [
        -0.99992036819458008,
        -0.99999701976776123,
        -0.99976032972335815
      ],
      "type": "VEC3"
    },
    {
      "bufferView": 3,
      "componentType": 5126,
      "count": 65532,
      "max": [
        0.75294119119644165,
        0.75294119119644165,
        0.75294119119644165,
        1
      ],
      "min": [
        0.75294119119644165,
        0.75294119119644165,
        0.75294119119644165,
        1
      ],
      "type": "VEC4"
    },
    {
      "bufferView": 1,
      "componentType": 5126,
      "count": 65532,
      "max": [
        0.99877899885177612,
        0.9987720251083374
      ],
      "min": [
        0.0012209999840706587,
        0.0012280000373721123
      ],
      "type": "VEC2"
    },
    {
      "bufferView": 0,
      "componentType": 5125,
      "count": 327918,
      "max": [
        65531
      ],
      "min": [
        0
      ],
      "type": "SCALAR"
    },
    {
      "bufferView": 2,
      "byteOffset": 1572768,
      "componentType": 5126,
      "count": 26818,
      "max": [
        6.2520751953125,
        0.3853679895401001,
        8.1208362579345703
      ],
      "min": [
        -5.2903180122375488,
        -9.8008642196655273,
        -7.6981167793273926
      ],
      "type": "VEC3"
    },
    {
      "bufferView": 2,
      "byteOffset": 1894584,
      "componentType": 5126,
      "count": 26818,
      "max": [
        0.99994575977325439,
        0.99800950288772583,
        0.99980336427688599
      ],
      "min": [
        -0.9961051344871521,
        -0.99996232986450195,
        -0.99976032972335815
      ],
      "type": "VEC3"
    },
    {
      "bufferView": 3,
      "byteOffset": 1048512,
      "componentType": 5126,
      "count": 26818,
      "max": [
        0.75294119119644165,
        0.75294119119644165,
        0.75294119119644165,
        1
      ],
      "min": [
        0.75294119119644165,
        0.75294119119644165,
        0.75294119119644165,
        1
      ],
      "type": "VEC4"
    },
    {
      "bufferView": 1,
      "byteOffset": 524256,
      "componentType": 5126,
      "count": 26818,
      "max": [
        0.99877899885177612,
        0.9987720251083374
      ],
      "min": [
        0.0012209999840706587,
        0.0014730000402778387
      ],
      "type": "VEC2"
    },
    {
      "bufferView": 0,
      "byteOffset": 1311672,
      "componentType": 5125,
      "count": 133317,
      "max": [
        26817
      ],
      "min": [
        0
      ],
      "type": "SCALAR"
    },
    {
      "bufferView": 2,
      "byteOffset": 2216400,
      "componentType": 5126,
      "count": 77,
      "max": [
        -2.5872340202331543,
        -2.9358789920806885,
        12.678940773010254
      ],
      "min": [
        -7.378626823425293,
        -5.14202880859375,
        -0.5481879711151123
      ],
      "type": "VEC3"
    },
    {
      "bufferView": 2,
      "byteOffset": 2217324,
      "componentType": 5126,
      "count": 77,
      "max": [
        0.024971012026071548,
        0.63981497287750244,
        0.88032388687133789
      ],
      "min": [
        -0.99821275472640991,
        -0.99837446212768555,
        -0.14914406836032867
      ],
      "type": "VEC3"
    },
    {
      "bufferView": 3,
      "byteOffset": 1477600,
      "componentType": 5126,
      "count": 77,
      "max": [
        0.75294119119644165,
        0.75294119119644165,
        0.75294119119644165,
        1
      ],
      "min": [
        0.75294119119644165,
        0.75294119119644165,
        0.75294119119644165,
        1
      ],
      "type": "VEC4"
    },
    {
      "bufferView": 1,
      "byteOffset": 738800,
      "componentType": 5126,
      "count": 77,
      "max": [
        0.5,
        0.5
      ],
      "min": [
        0.5,
        0.5
      ],
      "type": "VEC2"
    },
    {
      "bufferView": 0,
      "byteOffset": 1844940,
      "componentType": 5125,
      "count": 213,
      "max": [
        76
      ],
      "min": [
        0
      ],
      "type": "SCALAR"
    }
  ],
  "asset": {
    "extras": {
      "author": "alban (https://sketchfab.com/alban)",
      "license": "CC-BY-4.0 (http://creativecommons.org/licenses/by/4.0/)",
      "source": "https://sketchfab.com/3d-models/salmon-tartine-b6dd89dadb104bfba43fc399477e5a3c",
      "title": "Salmon tartine"
    },
    "generator": "Sketchfab-8.15.0",
    "version": "2.0"
  },
  "bufferViews": [
    {
      "buffer": 0,
      "byteLength": 1845792,
      "byteOffset": 0,
      "name": "floatBufferViews",
      "target": 34963
    },
    {
      "buffer": 0,
      "byteLength": 739416,
      "byteOffset": 1845792,
      "byteStride": 8,
      "name": "floatBufferViews",
      "target": 34962
    },
    {
      "buffer": 0,
      "byteLength": 2218248,
      "byteOffset": 2585208,
      "byteStride": 12,
      "name": "floatBufferViews",
      "target": 34962
    },
    {
      "buffer": 0,
      "byteLength": 1478832,
      "byteOffset": 4803456,
      "byteStride": 16,
      "name": "floatBufferViews",
      "target": 34962
    }
  ],
  "buffers": [
    {
      "byteLength": 6282288,
      "uri": "scene.bin"
    }
  ],
  "images": [
    {
      "uri": "textures/material_0_baseColor.jpeg"
    }
  ],
  "materials": [
    {
      "doubleSided": true,
      "emissiveFactor": [
        0,
        0,
        0
      ],
      "name": "material_0",
      "pbrMetallicRoughness": {
        "baseColorFactor": [
          1,
          1,
          1,
          1
        ],
        "baseColorTexture": {
          "index": 0,
          "texCoord": 0
        },
        "metallicFactor": 0,
        "roughnessFactor": 1
      }
    },
    {
      "doubleSided": true,
      "emissiveFactor": [
        0,
        0,
        0
      ],
      "name": "material_1",
      "pbrMetallicRoughness": {
        "baseColorFactor": [
          0.20190886559999999,
          0.082941871,
          0.0119385815,
          1
        ],
        "metallicFactor": 0,
        "roughnessFactor": 1
      }
    }
  ],
  "meshes": [
    {
      "primitives": [
        {
          "attributes": {
            "COLOR_0": 2,
            "NORMAL": 1,
            "POSITION": 0,
            "TEXCOORD_0": 3
          },
          "indices": 4,
          "material": 0,
          "mode": 4
        }
      ]
    },
    {
      "primitives": [
        {
          "attributes": {
            "COLOR_0": 7,
            "NORMAL": 6,
            "POSITION": 5,
            "TEXCOORD_0": 8
          },
          "indices": 9,
          "material": 0,
          "mode": 4
        }
      ]
    },
    {
      "primitives": [
        {
          "attributes": {
            "COLOR_0": 12,
            "NORMAL": 11,
            "POSITION": 10,
            "TEXCOORD_0": 13
          },
          "indices": 14,
          "material": 1,
          "mode": 4
        }
      ]
    }
  ],
  "nodes": [
    {
      "children": [
        1
      ],
      "name": "RootNode (gltf orientation matrix)",
      "rotation": [
        -0.70710678118654746,
        -0,
        -0,
        0.70710678118654757
      ]
    },
    {
      "children": [
        2
      ],
      "matrix": [
        0.011273734182772888,
        -3.5742157697882162e-06,
        0.00055672993549049643,
        0,
        0.00055474231591182144,
        -0.00088353447360456361,
        -0.011239158373549163,
        0,
        4.7137319814614942e-05,
        0.01125284014612804,
        -0.0008822833442609368,
        0,
        0.20664313435554504,
        -8.7578830718994141,
        -0.3311101496219635,
        1
      ],
      "name": "RootNode (model correction matrix)"
    },
    {
      "children": [
        3,
        4,
        5
      ],
      "name": "mesh.obj.cleaner.materialmerger.gles"
    },
    {
      "mesh": 0,
      "name": ""
    },
    {
      "mesh": 1,
      "name": ""
    },
    {
      "mesh": 2,
      "name": ""
    }
  ],
  "samplers": [
    {
      "magFilter": 9729,
      "minFilter": 9987,
      "wrapS": 10497,
      "wrapT": 10497
    }
  ],
  "scene": 0,
  "scenes": [
    {
      "name": "OSG_Scene",
      "nodes": [
        0
      ]
    }
  ],
  "textures": [
    {
      "sampler": 0,
      "source": 0
    }
  ]
}

