{
  "accessors": [
    {
      "bufferView": 2,
      "componentType": 5126,
      "count": 48632,
      "max": [
        19.698795318603516,
        22.529928207397461,
        3.559884786605835
      ],
      "min": [
        -23.543313980102539,
        -19.222417831420898,
        -0.74043542146682739
      ],
      "type": "VEC3"
    },
    {
      "bufferView": 2,
      "byteOffset": 583584,
      "componentType": 5126,
      "count": 48632,
      "max": [
        0.99946892261505127,
        0.99997788667678833,
        0.99999278783798218
      ],
      "min": [
        -0.99994641542434692,
        -0.99999773502349854,
        -0.99926644563674927
      ],
      "type": "VEC3"
    },
    {
      "bufferView": 3,
      "componentType": 5126,
      "count": 48632,
      "max": [
        1,
        0.9973720908164978,
        0.99999755620956421,
        1
      ],
      "min": [
        -0.99999982118606567,
        -0.99967324733734131,
        -0.99999135732650757,
        -1
      ],
      "type": "VEC4"
    },
    {
      "bufferView": 1,
      "componentType": 5126,
      "count": 48632,
      "max": [
        0.99975597858428955,
        0.9938960075378418
      ],
      "min": [
        0.00024399999529123306,
        0.00024399999529123306
      ],
      "type": "VEC2"
    },
    {
      "bufferView": 0,
      "componentType": 5125,
      "count": 149892,
      "max": [
        48631
      ],
      "min": [
        0
      ],
      "type": "SCALAR"
    },
    {
      "bufferView": 2,
      "byteOffset": 1167168,
      "componentType": 5126,
      "count": 3536,
      "max": [
        21.80620002746582,
        25.704799652099609,
        1.2785999774932861
      ],
      "min": [
        -26.781000137329102,
        -22.882400512695312,
        -4.7242999076843262
      ],
      "type": "VEC3"
    },
    {
      "bufferView": 2,
      "byteOffset": 1209600,
      "componentType": 5126,
      "count": 3536,
      "max": [
        0.95815867185592651,
        0.95813333988189697,
        0.99996650218963623
      ],
      "min": [
        -0.95813333988189697,
        -0.95814001560211182,
        -0.99989277124404907
      ],
      "type": "VEC3"
    },
    {
      "bufferView": 3,
      "byteOffset": 778112,
      "componentType": 5126,
      "count": 3536,
      "max": [
        1,
        1,
        0.95820248126983643,
        1
      ],
      "min": [
        -1,
        -1,
        -0.95821076631546021,
        -1
      ],
      "type": "VEC4"
    },
    {
      "bufferView": 1,
      "byteOffset": 389056,
      "componentType": 5126,
      "count": 3536,
      "max": [
        0.9932439923286438,
        0.99500000476837158
      ],
      "min": [
        0.004999999888241291,
        0.004999999888241291
      ],
      "type": "VEC2"
    },
    {
      "bufferView": 0,
      "byteOffset": 599568,
      "componentType": 5125,
      "count": 16116,
      "max": [
        3535
      ],
      "min": [
        0
      ],
      "type": "SCALAR"
    }
  ],
  "asset": {
    "extras": {
      "author": "Rigsters (https://sketchfab.com/rigsters)",
      "license": "CC-BY-4.0 (http://creativecommons.org/licenses/by/4.0/)",
      "source": "https://sketchfab.com/3d-models/pizza-40d50989fec1460f8838b608d999ccd0",
      "title": "Pizza"
    },
    "generator": "Sketchfab-5.52.2",
    "version": "2.0"
  },
  "bufferViews": [
    {
      "buffer": 0,
      "byteLength": 664032,
      "byteOffset": 0,
      "name": "floatBufferViews",
      "target": 34963
    },
    {
      "buffer": 0,
      "byteLength": 417344,
      "byteOffset": 664032,
      "byteStride": 8,
      "name": "floatBufferViews",
      "target": 34962
    },
    {
      "buffer": 0,
      "byteLength": 1252032,
      "byteOffset": 1081376,
      "byteStride": 12,
      "name": "floatBufferViews",
      "target": 34962
    },
    {
      "buffer": 0,
      "byteLength": 834688,
      "byteOffset": 2333408,
      "byteStride": 16,
      "name": "floatBufferViews",
      "target": 34962
    }
  ],
  "buffers": [
    {
      "byteLength": 3168096,
      "uri": "scene.bin"
    }
  ],
  "images": [
    {
      "uri": "textures/Tarelka001__0_baseColor.jpeg"
    },
    {
      "uri": "textures/pizza_baseColor.jpeg"
    },
    {
      "uri": "textures/pizza_metallicRoughness.png"
    },
    {
      "uri": "textures/pizza_normal.jpeg"
    }
  ],
  "materials": [
    {
      "doubleSided": true,
      "name": "Tarelka001__0",
      "pbrMetallicRoughness": {
        "baseColorFactor": [
          1,
          1,
          1,
          1
        ],
        "baseColorTexture": {
          "index": 0,
          "texCoord": 0
        },
        "metallicFactor": 0,
        "roughnessFactor": 0.79829545450000006
      }
    },
    {
      "doubleSided": true,
      "emissiveFactor": [
        0,
        0,
        0
      ],
      "name": "pizza",
      "normalTexture": {
        "index": 3,
        "scale": 0.5,
        "texCoord": 0
      },
      "pbrMetallicRoughness": {
        "baseColorFactor": [
          1,
          1,
          1,
          1
        ],
        "baseColorTexture": {
          "index": 1,
          "texCoord": 0
        },
        "metallicFactor": 0,
        "metallicRoughnessTexture": {
          "index": 2,
          "texCoord": 0
        },
        "roughnessFactor": 1
      }
    }
  ],
  "meshes": [
    {
      "name": "pizza_pizza_0",
      "primitives": [
        {
          "attributes": {
            "NORMAL": 1,
            "POSITION": 0,
            "TANGENT": 2,
            "TEXCOORD_0": 3
          },
          "indices": 4,
          "material": 1,
          "mode": 4
        }
      ]
    },
    {
      "name": "Tarelka001__0",
      "primitives": [
        {
          "attributes": {
            "NORMAL": 6,
            "POSITION": 5,
            "TANGENT": 7,
            "TEXCOORD_0": 8
          },
          "indices": 9,
          "material": 0,
          "mode": 4
        }
      ]
    }
  ],
  "nodes": [
    {
      "children": [
        1
      ],
      "name": "RootNode (gltf orientation matrix)",
      "rotation": [
        -0.70710678118654746,
        -0,
        -0,
        0.70710678118654757
      ]
    },
    {
      "children": [
        2
      ],
      "name": "RootNode (model correction matrix)"
    },
    {
      "children": [
        3
      ],
      "matrix": [
        1,
        0,
        0,
        0,
        0,
        0,
        1,
        0,
        0,
        -1,
        0,
        0,
        0,
        0,
        0,
        1
      ],
      "name": "5c4c54040e5e4456bad50d3f439f1ab1.fbx"
    },
    {
      "children": [
        4,
        6
      ],
      "name": "RootNode"
    },
    {
      "children": [
        5
      ],
      "matrix": [
        1,
        0,
        0,
        0,
        0,
        2.2204460492503131e-16,
        -1,
        0,
        0,
        1,
        2.2204460492503131e-16,
        0,
        0,
        0,
        0,
        1
      ],
      "name": "pizza"
    },
    {
      "mesh": 0,
      "name": "pizza_pizza_0"
    },
    {
      "children": [
        7
      ],
      "matrix": [
        1,
        0,
        0,
        0,
        0,
        2.2204460492503131e-16,
        -1,
        0,
        0,
        1,
        2.2204460492503131e-16,
        0,
        0,
        0,
        0,
        1
      ],
      "name": "Tarelka001"
    },
    {
      "mesh": 1,
      "name": "Tarelka001__0"
    }
  ],
  "samplers": [
    {
      "magFilter": 9729,
      "minFilter": 9987,
      "wrapS": 10497,
      "wrapT": 10497
    }
  ],
  "scene": 0,
  "scenes": [
    {
      "name": "OSG_Scene",
      "nodes": [
        0
      ]
    }
  ],
  "textures": [
    {
      "sampler": 0,
      "source": 0
    },
    {
      "sampler": 0,
      "source": 1
    },
    {
      "sampler": 0,
      "source": 2
    },
    {
      "sampler": 0,
      "source": 3
    }
  ]
}

