{
  "accessors": [
    {
      "bufferView": 2,
      "componentType": 5126,
      "count": 65532,
      "max": [
        4.055753231048584,
        8.2651395797729492,
        1.8030539751052856
      ],
      "min": [
        -3.5711801052093506,
        2.8274989128112793,
        -1.8166129589080811
      ],
      "type": "VEC3"
    },
    {
      "bufferView": 2,
      "byteOffset": 786384,
      "componentType": 5126,
      "count": 65532,
      "max": [
        1,
        0.99999701976776123,
        0.99998337030410767
      ],
      "min": [
        -0.99996787309646606,
        -0.9999847412109375,
        -0.99999350309371948
      ],
      "type": "VEC3"
    },
    {
      "bufferView": 3,
      "componentType": 5126,
      "count": 65532,
      "max": [
        0.99846017360687256,
        0.99982887506484985,
        0.99997276067733765,
        1
      ],
      "min": [
        -0.99999839067459106,
        -0.99998152256011963,
        -0.99954748153686523,
        -1
      ],
      "type": "VEC4"
    },
    {
      "bufferView": 1,
      "componentType": 5126,
      "count": 65532,
      "max": [
        0.99762099981307983,
        0.99964898824691772
      ],
      "min": [
        0.00034900000900961459,
        0.19289800524711609
      ],
      "type": "VEC2"
    },
    {
      "bufferView": 0,
      "componentType": 5125,
      "count": 361281,
      "max": [
        65531
      ],
      "min": [
        0
      ],
      "type": "SCALAR"
    },
    {
      "bufferView": 2,
      "byteOffset": 1572768,
      "componentType": 5126,
      "count": 51072,
      "max": [
        4.055753231048584,
        8.452296257019043,
        2.3471949100494385
      ],
      "min": [
        -4.0200982093811035,
        2.7874469757080078,
        -1.8423629999160767
      ],
      "type": "VEC3"
    },
    {
      "bufferView": 2,
      "byteOffset": 2185632,
      "componentType": 5126,
      "count": 51072,
      "max": [
        0.99996209144592285,
        0.99997550249099731,
        0.9999956488609314
      ],
      "min": [
        -1,
        -1,
        -1
      ],
      "type": "VEC3"
    },
    {
      "bufferView": 3,
      "byteOffset": 1048512,
      "componentType": 5126,
      "count": 51072,
      "max": [
        0.99999731779098511,
        0.99996888637542725,
        0.99923813343048096,
        1
      ],
      "min": [
        -0.99990332126617432,
        -0.99998742341995239,
        -0.99999219179153442,
        -1
      ],
      "type": "VEC4"
    },
    {
      "bufferView": 1,
      "byteOffset": 524256,
      "componentType": 5126,
      "count": 51072,
      "max": [
        0.99977898597717285,
        0.99958199262619019
      ],
      "min": [
        0.037466999143362045,
        0.19288100302219391
      ],
      "type": "VEC2"
    },
    {
      "bufferView": 0,
      "byteOffset": 1445124,
      "componentType": 5125,
      "count": 237822,
      "max": [
        51071
      ],
      "min": [
        0
      ],
      "type": "SCALAR"
    }
  ],
  "asset": {
    "extras": {
      "author": "alban (https://sketchfab.com/alban)",
      "license": "CC-BY-4.0 (http://creativecommons.org/licenses/by/4.0/)",
      "source": "https://sketchfab.com/models/31f2a2016539467aa01fd000b9a6469f",
      "title": "Saturday brunch"
    },
    "generator": "Sketchfab-3.29.3",
    "version": "2.0"
  },
  "bufferViews": [
    {
      "buffer": 0,
      "byteLength": 2396412,
      "byteOffset": 0,
      "name": "floatBufferViews",
      "target": 34963
    },
    {
      "buffer": 0,
      "byteLength": 932832,
      "byteOffset": 2396412,
      "byteStride": 8,
      "name": "floatBufferViews",
      "target": 34962
    },
    {
      "buffer": 0,
      "byteLength": 2798496,
      "byteOffset": 3329244,
      "byteStride": 12,
      "name": "floatBufferViews",
      "target": 34962
    },
    {
      "buffer": 0,
      "byteLength": 1865664,
      "byteOffset": 6127740,
      "byteStride": 16,
      "name": "floatBufferViews",
      "target": 34962
    }
  ],
  "buffers": [
    {
      "byteLength": 7993404,
      "uri": "scene.bin"
    }
  ],
  "extensionsUsed": [
    "KHR_materials_unlit"
  ],
  "images": [
    {
      "uri": "textures/material_0_baseColor.jpeg"
    }
  ],
  "materials": [
    {
      "doubleSided": true,
      "emissiveFactor": [
        0,
        0,
        0
      ],
      "extensions": {
        "KHR_materials_unlit": {}
      },
      "name": "material_0",
      "pbrMetallicRoughness": {
        "baseColorFactor": [
          1,
          1,
          1,
          1
        ],
        "baseColorTexture": {
          "index": 0,
          "texCoord": 0
        },
        "metallicFactor": 0,
        "roughnessFactor": 1
      }
    }
  ],
  "meshes": [
    {
      "primitives": [
        {
          "attributes": {
            "NORMAL": 1,
            "POSITION": 0,
            "TANGENT": 2,
            "TEXCOORD_0": 3
          },
          "indices": 4,
          "material": 0,
          "mode": 4
        }
      ]
    },
    {
      "primitives": [
        {
          "attributes": {
            "NORMAL": 6,
            "POSITION": 5,
            "TANGENT": 7,
            "TEXCOORD_0": 8
          },
          "indices": 9,
          "material": 0,
          "mode": 4
        }
      ]
    }
  ],
  "nodes": [
    {
      "children": [
        1
      ],
      "name": "RootNode (gltf orientation matrix)",
      "rotation": [
        -0.70710678118654746,
        -0,
        -0,
        0.70710678118654757
      ]
    },
    {
      "children": [
        2
      ],
      "matrix": [
        0.031339619308710098,
        -0.99676859378814697,
        0.073960542678833008,
        0,
        0.84860694408416748,
        -0.012561433017253876,
        -0.52887469530105591,
        0,
        0.52809476852416992,
        0.079338163137435913,
        0.8454710841178894,
        0,
        -4.8851046562194824,
        5.6882209777832031,
        3.0099020004272461,
        1
      ],
      "name": "RootNode (model correction matrix)"
    },
    {
      "children": [
        3,
        4
      ],
      "name": "obj.obj.cleaner"
    },
    {
      "mesh": 0,
      "name": ""
    },
    {
      "mesh": 1,
      "name": ""
    }
  ],
  "samplers": [
    {
      "magFilter": 9729,
      "minFilter": 9987,
      "wrapS": 10497,
      "wrapT": 10497
    }
  ],
  "scene": 0,
  "scenes": [
    {
      "name": "OSG_Scene",
      "nodes": [
        0
      ]
    }
  ],
  "textures": [
    {
      "sampler": 0,
      "source": 0
    }
  ]
}

